<?xml version="1.0" encoding="utf-8"?>
<!-- Generator: Adobe Illustrator 16.0.0, SVG Export Plug-In . SVG Version: 6.00 Build 0)  -->
<!DOCTYPE svg PUBLIC "-//W3C//DTD SVG 1.1//EN" "http://www.w3.org/Graphics/SVG/1.1/DTD/svg11.dtd">
<svg version="1.1" id="Layer_1" xmlns="http://www.w3.org/2000/svg" xmlns:xlink="http://www.w3.org/1999/xlink" x="0px" y="0px"
	 width="309px" height="130px" viewBox="0 0 309 130" enable-background="new 0 0 309 130" xml:space="preserve">
<g>
	<path fill="#9370B1" d="M110.594,10.294c1.258,0,2.717,0.05,3.976,0.05c1.358,0,2.365-0.05,3.271-0.05l-0.252,0.805l-1.509,1.057
		v7.9h12.026v-7.799l-1.711-1.208l0.251-0.705c1.007,0,1.963,0.05,2.97,0.05c1.61,0,3.22-0.05,4.579-0.05l-0.251,0.855l-2.768,1.057
		v9.107c0,3.925,0.101,9.46,0.252,9.863l3.17,1.107l-0.302,0.855c-1.359,0-3.019-0.05-4.629-0.05c-1.158,0-2.264,0.05-3.221,0.05
		l0.252-0.855l1.358-1.057c0.101-3.372,0.051-6.39,0.051-9.662c-0.805,0.151-2.617,0.202-4.479,0.202h-7.598
		c0,2.818-0.101,5.736,0.05,9.309l1.61,1.258l-0.251,0.805c-0.906,0-1.811-0.05-3.019-0.05c-1.51,0-3.17,0.05-4.529,0.05
		l0.302-0.805l2.618-1.057c0.05-0.855,0.201-5.938,0.201-10.165v-8.958l-2.768-1.006L110.594,10.294z"/>
	<path fill="#9370B1" d="M144.46,23.428c-0.051-3.572-1.611-4.328-3.422-4.328c-0.654,0-1.509,0.252-2.114,0.604
		c-0.05,1.006-0.201,2.566-0.402,3.472l-0.402,0.151c-0.402-0.202-1.812-2.013-2.164-2.969c0.705-0.654,2.768-1.812,4.177-2.365
		c0.805-0.302,1.61-0.604,2.415-0.604c3.572,0,4.73,3.07,4.73,5.284c0,2.365-0.051,5.384-0.051,7.699
		c0.754,1.258,2.063,1.812,2.717,2.013l-0.252,0.554c-0.301,0.151-0.855,0.453-1.711,0.453c-2.314,0-3.119-1.057-3.421-1.963h-0.05
		c-1.509,1.459-3.07,2.063-4.176,2.063c-3.02,0-4.378-2.365-4.378-4.026c0-1.459,0.604-2.416,1.358-2.818
		c1.258-0.755,4.479-1.862,7.146-2.466V23.428L144.46,23.428z M138.924,28.862c0,2.063,1.711,2.718,2.818,2.718
		c0.705,0,1.661-0.353,2.365-1.057c0.201-0.251,0.302-0.503,0.302-0.805l0.051-4.378c-1.51,0.402-3.372,1.057-4.328,1.61
		C139.226,27.403,138.924,27.856,138.924,28.862L138.924,28.862z"/>
	<path fill="#9370B1" d="M151.404,18.648c0.502-0.252,2.918-1.108,3.976-1.158c0.199,0.805,0.4,2.314,0.353,3.372h0.048
		c1.411-2.466,3.472-3.372,4.832-3.372c0.703,0,1.358,0.201,1.711,0.604c-0.101,0.957-0.705,2.918-1.157,3.774l-0.402,0.202
		c-0.353-0.503-0.756-1.158-1.26-2.315c-0.148-0.05-0.252-0.101-0.502-0.101c-1.058,0-2.466,1.308-3.171,2.969v8.756l3.474,1.006
		l-0.151,0.755c-1.31,0-3.021-0.05-4.932-0.05c-1.107,0-2.566,0.05-3.573,0.05l0.152-0.755l1.962-1.057
		c0.151-3.572,0.151-9.309,0.151-11.02l-1.812-1.006L151.404,18.648z"/>
	<path fill="#9370B1" d="M171.179,17.44c4.277,0,7.7,3.271,7.7,7.9c0,4.932-3.372,8.202-7.799,8.202c-3.826,0-7.8-2.768-7.8-7.85
		C163.28,20.408,167.556,17.44,171.179,17.44L171.179,17.44z M170.977,18.648c-2.917,0-4.376,3.371-4.376,6.742
		c0,3.271,1.61,6.894,4.679,6.894c3.171,0,4.126-3.724,4.126-6.692C175.507,22.422,174.048,18.648,170.977,18.648L170.977,18.648z"
		/>
	<path fill="#9370B1" d="M187.937,32.284l-0.303,0.806c-1.31,0-2.466-0.051-3.673-0.051c-1.259,0-2.617,0.051-3.875,0.051
		l0.151-0.755l2.162-1.006c0.053-1.409,0.053-3.572,0.053-11.976c0-3.12,0-6.592-0.102-8.252l-2.013-0.805l0.353-0.705
		c1.157-0.402,3.271-0.805,4.779-1.006c-0.05,3.573-0.101,6.894-0.101,10.668c0,6.944,0.051,9.561,0.051,12.127L187.937,32.284z"/>
	<path fill="#9370B1" d="M203.284,30.573c0.855,1.157,2.013,1.812,2.667,2.063l-0.252,0.604c-0.251,0.201-0.806,0.352-1.609,0.352
		c-1.158,0-2.819-0.502-3.474-1.962h-0.101c-0.603,0.453-2.615,1.962-4.175,1.962c-2.92,0-7.298-2.264-7.298-7.648
		c0-5.585,4.73-8.454,8.403-8.454c0.504,0,1.711,0.302,2.867,1.057h0.051c0-2.516-0.051-4.68-0.099-7.296l-2.164-0.906l0.302-0.654
		c0.805-0.302,2.616-0.805,4.981-1.107c-0.051,3.573-0.101,6.994-0.101,10.769V30.573L203.284,30.573z M200.364,19.805
		c-0.703-0.453-1.711-0.705-2.565-0.705c-3.271,0-5.585,2.919-5.585,6.29c0,3.372,2.265,6.089,5.384,6.089
		c0.703,0,1.711-0.201,2.817-1.006V19.805H200.364z"/>
	<path fill="#9370B1" d="M206.756,16.383c1.156-1.057,2.063-2.617,2.063-3.976c0-0.604-0.101-0.906-0.252-1.157l-1.308-0.705v-0.453
		l2.618-1.51h0.4c0.353,0.151,1.108,1.157,1.159,2.516c0.05,2.164-1.36,4.428-4.127,6.088L206.756,16.383z"/>
	<path fill="#9370B1" d="M216.568,17.44c0.755,0,1.71,0.251,2.566,0.805c0.553-0.403,1.207-0.705,1.812-0.906l0.252,0.251
		c0,0.604-0.504,3.371-0.806,4.177l-0.504,0.201c-0.401-0.704-0.854-1.811-1.207-2.667c-0.201-0.151-0.806-0.604-2.063-0.604
		c-1.71,0-2.617,1.158-2.617,2.365c0,0.805,0.303,1.359,1.26,1.913c1.056,0.604,2.968,1.358,4.124,1.962
		c1.914,0.956,2.617,2.214,2.617,3.673c0,3.774-3.925,4.831-6.089,4.831c-1.812,0-3.824-0.654-5.031-1.509
		c0-0.654,0.604-3.271,0.806-3.774l0.502-0.252c0.504,0.906,1.26,3.02,1.612,3.925c0.502,0.201,1.257,0.353,2.111,0.353
		c1.812,0,3.222-1.108,3.222-2.517c0-0.956-0.302-1.56-1.359-2.063c-0.955-0.503-2.063-1.057-3.371-1.661
		c-1.912-0.855-3.019-2.164-3.019-4.076C211.386,19.754,213.097,17.44,216.568,17.44L216.568,17.44z"/>
	<path fill="#9370B1" d="M244.496,9.69c2.213,0,4.127,0.503,5.384,1.309c0.805-0.503,1.862-0.805,2.616-1.007l0.201,0.151
		c-0.149,1.358-1.006,4.881-1.358,5.585l-0.603,0.352c-0.302-0.604-0.957-2.667-1.158-3.824c-0.756-0.503-2.617-1.057-4.378-1.057
		c-6.49,0-10.314,4.529-10.314,10.567c0,5.938,4.023,10.417,10.667,10.417c1.156,0,1.761-0.101,2.265-0.252
		c1.458-1.51,3.169-3.271,4.025-3.925l0.804,0.151c-0.3,1.057-1.91,4.176-2.363,4.528c-1.259,0.604-4.076,1.107-5.988,1.107
		c-6.492,0-12.983-3.573-12.983-11.875c0-8.202,7.196-12.228,13.084-12.228H244.496L244.496,9.69z"/>
	<path fill="#9370B1" d="M254.71,18.648c0.504-0.252,2.92-1.108,3.976-1.158c0.201,0.805,0.403,2.314,0.353,3.372h0.051
		c1.408-2.466,3.472-3.372,4.831-3.372c0.703,0,1.358,0.201,1.711,0.604c-0.101,0.957-0.705,2.918-1.158,3.774l-0.401,0.252
		c-0.353-0.503-0.756-1.158-1.26-2.315c-0.15-0.05-0.251-0.101-0.503-0.101c-1.057,0-2.465,1.308-3.17,2.969v8.755l3.472,1.007
		l-0.149,0.754c-1.31,0-3.02-0.05-4.932-0.05c-1.106,0-2.567,0.05-3.573,0.05l0.151-0.754l1.963-1.057
		c0.15-3.573,0.15-9.309,0.15-11.02l-1.811-1.006L254.71,18.648z"/>
	<path fill="#9370B1" d="M274.486,17.44c4.277,0,7.699,3.271,7.699,7.9c0,4.932-3.371,8.202-7.8,8.202c-3.824,0-7.8-2.768-7.8-7.85
		C266.586,20.408,270.863,17.44,274.486,17.44L274.486,17.44z M274.285,18.648c-2.918,0-4.379,3.371-4.379,6.742
		c0,3.271,1.612,6.894,4.681,6.894c3.17,0,4.127-3.724,4.127-6.692C278.814,22.422,277.355,18.648,274.285,18.648L274.285,18.648z"
		/>
	<path fill="#9370B1" d="M289.884,17.44c0.756,0,1.711,0.251,2.567,0.805c0.554-0.403,1.207-0.705,1.812-0.906l0.252,0.251
		c0,0.604-0.504,3.371-0.807,4.177l-0.501,0.201c-0.403-0.704-0.856-1.811-1.209-2.667c-0.202-0.151-0.854-0.604-2.063-0.604
		c-1.711,0-2.615,1.158-2.615,2.365c0,0.805,0.3,1.359,1.257,1.913c1.056,0.604,2.968,1.358,4.127,1.962
		c1.912,0.956,2.617,2.214,2.617,3.673c0,3.774-3.925,4.831-6.089,4.831c-1.812,0-3.824-0.654-5.033-1.509
		c0-0.654,0.604-3.271,0.806-3.774l0.502-0.252c0.504,0.906,1.259,3.02,1.611,3.925c0.502,0.201,1.258,0.353,2.114,0.353
		c1.812,0,3.22-1.108,3.22-2.517c0-0.956-0.303-1.56-1.358-2.063c-0.957-0.503-2.063-1.057-3.371-1.661
		c-1.914-0.855-3.02-2.164-3.02-4.076C284.651,19.754,286.362,17.44,289.884,17.44L289.884,17.44z"/>
	<path fill="#9370B1" d="M302.565,17.44c0.754,0,1.711,0.251,2.565,0.805c0.554-0.403,1.209-0.705,1.812-0.906l0.252,0.251
		c0,0.604-0.502,3.371-0.805,4.177l-0.503,0.201c-0.403-0.704-0.856-1.811-1.207-2.667c-0.202-0.151-0.807-0.604-2.063-0.604
		c-1.713,0-2.617,1.158-2.617,2.365c0,0.805,0.302,1.359,1.259,1.913c1.057,0.604,2.969,1.358,4.125,1.962
		c1.912,0.956,2.617,2.214,2.617,3.673c0,3.774-3.925,4.831-6.089,4.831c-1.812,0-3.824-0.654-5.031-1.509
		c0-0.654,0.603-3.271,0.804-3.774l0.504-0.252c0.504,0.906,1.257,3.02,1.609,3.925c0.504,0.201,1.26,0.353,2.114,0.353
		c1.812,0,3.22-1.108,3.22-2.517c0-0.956-0.303-1.56-1.358-2.063c-0.955-0.503-2.063-1.057-3.371-1.661
		c-1.912-0.855-3.018-2.164-3.018-4.076C297.384,19.754,299.092,17.44,302.565,17.44L302.565,17.44z"/>
	<path fill="#5191CD" d="M110.393,42.449c1.611-0.15,5.737-0.453,7.9-0.453c5.384,0,8.504,1.51,8.504,5.233
		c0,3.371-3.12,4.932-5.687,5.334v0.251c5.032,0.504,7.196,2.517,7.196,5.586c0,5.938-6.793,6.743-11.573,6.743
		c-2.315,0-4.479-0.05-6.693-0.1l0.252-0.805l2.465-1.006c0.051-0.504,0.201-3.372,0.201-8.102V44.009l-2.918-0.704L110.393,42.449z
		 M124.734,58.3c0-2.516-1.208-4.931-8.604-4.831v0.957c0,2.818-0.101,6.743,0.1,9.359c4.479-0.05,6.24-0.755,7.347-1.962
		C124.482,60.815,124.734,59.557,124.734,58.3L124.734,58.3z M116.129,52.312c3.925-0.05,7.397-0.957,7.397-4.831
		c0-1.61-0.654-2.716-1.812-3.371c-1.057-0.554-2.365-0.805-4.529-0.805h-1.056V52.312z"/>
	<path fill="#5191CD" d="M137.465,64.187l-0.302,0.806c-1.309,0-2.466-0.051-3.673-0.051c-1.258,0-2.617,0.051-3.875,0.051
		l0.15-0.755l2.164-1.006c0.05-1.409,0.05-3.573,0.05-11.977c0-3.12,0-6.592-0.1-8.252l-2.012-0.805l0.352-0.705
		c1.157-0.402,3.271-0.805,4.78-1.006c-0.05,3.573-0.101,6.894-0.101,10.668c0,6.944,0.05,9.561,0.05,12.127L137.465,64.187z"/>
	<path fill="#5191CD" d="M147.328,55.331c-0.05-3.573-1.611-4.328-3.422-4.328c-0.654,0-1.509,0.252-2.113,0.604
		c-0.05,1.006-0.202,2.566-0.403,3.472l-0.402,0.151c-0.402-0.201-1.812-2.014-2.164-2.969c0.705-0.654,2.768-1.811,4.177-2.365
		c0.805-0.302,1.61-0.604,2.415-0.604c3.572,0,4.73,3.07,4.73,5.284c0,2.365-0.051,5.385-0.051,7.699
		c0.754,1.258,2.063,1.812,2.717,2.013l-0.251,0.553c-0.301,0.151-0.855,0.454-1.711,0.454c-2.314,0-3.119-1.057-3.421-1.963h-0.05
		c-1.509,1.459-3.07,2.063-4.176,2.063c-3.02,0-4.378-2.365-4.378-4.025c0-1.459,0.604-2.415,1.358-2.819
		c1.258-0.754,4.479-1.862,7.146-2.465V55.331L147.328,55.331z M141.792,60.766c0,2.063,1.711,2.717,2.818,2.717
		c0.705,0,1.661-0.352,2.365-1.056c0.201-0.252,0.302-0.504,0.302-0.806l0.05-4.377c-1.51,0.402-3.372,1.057-4.328,1.61
		C142.094,59.307,141.792,59.759,141.792,60.766L141.792,60.766z"/>
	<path fill="#5191CD" d="M153.769,57.595c0-5.686,4.831-8.252,8.907-8.252c2.013,0,3.874,0.755,4.376,1.258
		c-0.199,0.906-0.703,2.616-1.257,3.724l-0.502,0.201c-0.252-0.654-0.705-2.063-1.108-3.723c-0.201-0.151-0.604-0.252-1.308-0.252
		c-3.824,0-5.837,3.17-5.837,6.592c0,3.824,2.414,6.592,6.14,6.592c0.302,0,0.703-0.151,0.955-0.302
		c1.209-1.006,2.265-1.711,2.869-1.963l0.25,0.503c-0.301,0.956-1.61,2.466-2.213,2.919c-0.504,0.201-2.164,0.553-3.272,0.553
		C158.499,65.445,153.769,63.482,153.769,57.595L153.769,57.595z"/>
	<path fill="#5191CD" d="M175.859,64.238l-0.202,0.805c-1.257,0-2.617-0.05-3.925-0.05c-1.207,0-2.416,0.05-3.623,0.05l0.202-0.755
		l1.962-1.057c0.051-0.705,0.102-2.818,0.102-7.9c0-4.378,0-8.504-0.102-12.228l-1.962-0.906l0.302-0.705
		c0.905-0.251,3.472-0.906,4.679-1.057c-0.05,3.673-0.101,7.8-0.101,11.976c0,3.372,0.051,10.015,0.101,10.769L175.859,64.238z
		 M184.313,65.546c-1.861-0.101-3.474-0.503-4.681-1.71c-1.609-1.51-4.025-4.479-5.686-6.794l-0.051-0.15
		c1.509-1.661,3.472-4.026,4.781-5.687l0.653-1.812c1.509,0,3.874,0.252,4.681,0.453l-0.504,0.805
		c-0.504,0.252-2.718,1.006-3.572,1.359c-1.159,1.158-1.711,1.711-3.321,3.522v0.101c2.014,2.717,6.238,7.699,7.951,9.762
		L184.313,65.546z"/>
	<path fill="#5191CD" d="M185.924,50.55c0.503-0.251,2.917-1.107,3.975-1.157c0.202,0.805,0.403,2.315,0.353,3.372h0.051
		c1.408-2.465,3.472-3.372,4.83-3.372c0.705,0,1.357,0.201,1.71,0.604c-0.101,0.956-0.703,2.918-1.156,3.774l-0.403,0.252
		c-0.353-0.504-0.753-1.158-1.257-2.315c-0.151-0.051-0.252-0.101-0.504-0.101c-1.056,0-2.466,1.309-3.169,2.969v8.755l3.472,1.007
		l-0.151,0.755c-1.308,0-3.021-0.05-4.933-0.05c-1.106,0-2.564,0.05-3.572,0.05l0.151-0.755l1.962-1.057
		c0.151-3.572,0.151-9.309,0.151-11.02l-1.812-1.006L185.924,50.55z"/>
	<path fill="#5191CD" d="M205.649,49.343c4.275,0,7.699,3.271,7.699,7.9c0,4.932-3.373,8.202-7.8,8.202c-3.824,0-7.8-2.768-7.8-7.85
		C197.749,52.312,202.077,49.343,205.649,49.343L205.649,49.343z M205.498,50.55c-2.919,0-4.378,3.372-4.378,6.743
		c0,3.271,1.609,6.894,4.681,6.894c3.169,0,4.124-3.724,4.124-6.692C209.976,54.325,208.517,50.55,205.498,50.55L205.498,50.55z"/>
	<path fill="#5191CD" d="M215.663,57.595c0-5.686,4.83-8.252,8.906-8.252c2.013,0,3.874,0.755,4.378,1.258
		c-0.201,0.906-0.705,2.616-1.259,3.724l-0.504,0.201c-0.25-0.654-0.703-2.063-1.106-3.723c-0.201-0.151-0.603-0.252-1.308-0.252
		c-3.824,0-5.837,3.17-5.837,6.592c0,3.824,2.416,6.592,6.14,6.592c0.252,0,0.703-0.151,0.955-0.302
		c1.207-1.006,2.265-1.711,2.869-1.963l0.252,0.503c-0.303,0.956-1.612,2.466-2.215,2.919c-0.504,0.201-2.164,0.553-3.271,0.553
		C220.393,65.445,215.663,63.482,215.663,57.595L215.663,57.595z"/>
	<path fill="#5191CD" d="M237.753,64.238l-0.202,0.805c-1.257,0-2.615-0.05-3.925-0.05c-1.207,0-2.414,0.05-3.623,0.05l0.202-0.755
		l1.962-1.057c0.051-0.705,0.102-2.818,0.102-7.9c0-4.378,0-8.504-0.102-12.228l-1.962-0.906l0.302-0.705
		c0.905-0.251,3.472-0.906,4.679-1.057c-0.048,3.673-0.099,7.8-0.099,11.976c0,3.372,0.051,10.015,0.099,10.769L237.753,64.238z
		 M246.157,65.546c-1.862-0.101-3.472-0.503-4.681-1.71c-1.61-1.51-4.026-4.479-5.687-6.794l-0.05-0.15
		c1.509-1.661,3.472-4.026,4.781-5.687l0.652-1.812c1.512,0,3.875,0.252,4.681,0.453l-0.504,0.805
		c-0.504,0.252-2.716,1.006-3.572,1.359c-1.156,1.158-1.711,1.711-3.32,3.522v0.101c2.013,2.717,6.24,7.699,7.95,9.762
		L246.157,65.546z"/>
	<path fill="#E6588D" d="M109.437,74.101c1.107,0,2.365,0.05,3.774,0.05c1.057,0,2.113-0.05,3.12-0.05l-0.202,0.805l-1.007,0.805
		c0.654,1.812,1.812,4.58,7.095,17.461h0.101c1.057-2.062,2.063-4.176,3.925-8.302c-1.358-3.271-2.818-6.593-3.824-8.655
		c-0.504-0.504-1.157-0.905-2.718-1.309l0.302-0.805c1.007,0,2.365,0.05,3.523,0.05c0.654,0,1.308-0.05,1.912-0.05l0.05,0.15
		l0.151,1.61c0.302,0.956,0.604,1.712,2.415,5.837h0.051c1.409-3.068,1.912-4.025,2.566-5.837l0.05-1.61l0.051-0.15
		c0.503,0.05,1.057,0.05,1.56,0.05c1.208,0,2.265-0.05,3.321-0.05l-0.251,0.805c-1.711,0.554-2.466,0.956-3.17,1.611
		c-0.453,0.805-1.358,2.313-3.522,6.741c0.353,0.807,1.661,3.926,4.227,9.764h0.05c1.51-3.976,4.026-10.668,6.24-17.16l-1.107-0.956
		l0.302-0.805c0.604,0.05,1.308,0.05,2.063,0.05c1.359,0,2.617-0.05,3.824-0.05l-0.201,0.805c-1.61,0.503-2.314,0.856-2.969,1.509
		c-0.957,1.712-4.629,11.272-7.648,18.972c-0.352,0.755-1.057,1.66-1.51,2.164h-0.25c-0.655-1.359-2.667-6.291-4.68-10.869h-0.05
		c-2.114,4.327-3.271,6.742-4.278,8.856c-0.402,0.653-1.056,1.56-1.61,2.063h-0.252c-1.006-2.265-7.044-17.158-8.906-21.234
		c-0.553-0.555-1.158-0.906-2.768-1.359L109.437,74.101z"/>
	<path fill="#E6588D" d="M144.711,82.253c0.554-0.151,2.617-0.807,4.579-1.007v6.995c0,3.873,0.05,5.886,0.05,6.843l2.466,1.057
		l-0.251,0.805c-1.208,0-2.517-0.05-3.875-0.05c-1.107,0-2.265,0.05-3.573,0.05l0.252-0.805l1.962-1.057
		c0.05-1.158,0.05-4.126,0.05-6.895v-4.377l-1.862-0.906L144.711,82.253z M147.981,74.101c0.504,0.15,1.41,1.208,1.711,1.912
		l-0.05,0.252c-0.302,0.653-1.358,1.71-1.811,1.962l-0.252,0.05c-0.604-0.352-1.358-1.308-1.71-1.962l0.05-0.252
		c0.503-0.805,1.258-1.609,1.861-1.962H147.981z"/>
	<path fill="#E6588D" d="M152.963,89.498c0-5.686,4.831-8.252,8.907-8.252c2.013,0,3.874,0.755,4.378,1.258
		c-0.201,0.905-0.705,2.617-1.258,3.724l-0.503,0.202c-0.252-0.655-0.705-2.063-1.108-3.725c-0.199-0.15-0.603-0.252-1.308-0.252
		c-3.824,0-5.837,3.17-5.837,6.593c0,3.823,2.415,6.592,6.139,6.592c0.252,0,0.705-0.151,0.955-0.252
		c1.209-1.007,2.265-1.711,2.869-1.963l0.252,0.503c-0.302,0.956-1.609,2.467-2.214,2.92c-0.504,0.2-2.164,0.553-3.271,0.553
		C157.692,97.349,152.963,95.386,152.963,89.498L152.963,89.498z"/>
	<path fill="#E6588D" d="M175.053,96.141l-0.201,0.805c-1.257,0-2.615-0.05-3.925-0.05c-1.207,0-2.414,0.05-3.623,0.05l0.201-0.755
		l1.963-1.057c0.051-0.704,0.101-2.817,0.101-7.899c0-4.378,0-8.505-0.101-12.229l-1.912-0.905l0.303-0.704
		c0.906-0.252,3.472-0.906,4.68-1.058c-0.05,3.674-0.101,7.8-0.101,11.976c0,3.372,0.051,10.015,0.101,10.77L175.053,96.141z
		 M183.508,97.449c-1.862-0.101-3.472-0.504-4.679-1.712c-1.612-1.509-4.025-4.479-5.687-6.793l-0.052-0.15
		c1.511-1.661,3.474-4.025,4.781-5.686l0.654-1.812c1.51,0,3.875,0.251,4.679,0.452l-0.503,0.806
		c-0.502,0.251-2.717,1.006-3.573,1.358c-1.156,1.157-1.71,1.71-3.32,3.521v0.102c2.013,2.717,6.24,7.698,7.951,9.762
		L183.508,97.449z"/>
	<path fill="#E6588D" d="M191.761,96.091l-0.303,0.805c-1.308,0-2.466-0.05-3.673-0.05c-1.259,0-2.617,0.05-3.875,0.05l0.151-0.755
		l2.164-1.007c0.051-1.408,0.051-3.572,0.051-11.976c0-3.12,0-6.592-0.101-8.253l-2.014-0.855l0.351-0.704
		c1.159-0.403,3.272-0.806,4.781-1.007c-0.05,3.573-0.101,6.895-0.101,10.668c0,6.944,0.051,9.562,0.051,12.127L191.761,96.091z"/>
	<path fill="#E6588D" d="M200.817,81.246c4.278,0,7.699,3.271,7.699,7.899c0,4.932-3.371,8.203-7.8,8.203
		c-3.824,0-7.8-2.768-7.8-7.851C192.917,84.214,197.194,81.246,200.817,81.246L200.817,81.246z M200.616,82.453
		c-2.918,0-4.379,3.372-4.379,6.743c0,3.271,1.612,6.895,4.681,6.895c3.172,0,4.127-3.725,4.127-6.693
		C205.146,86.228,203.687,82.453,200.616,82.453L200.616,82.453z"/>
	<path fill="#E6588D" d="M215.762,82.504l-1.308,0.905c0.454,1.611,1.459,4.58,3.119,9.562h0.053
		c1.156-2.97,2.212-5.484,3.169-8.001l-0.302-2.063c0.302-0.252,1.812-1.057,2.517-1.208l0.252,0.151l0.15,2.567
		c0.905,2.465,2.063,5.434,3.371,8.806h0.051c1.156-3.573,1.912-6.039,2.918-9.713l-1.812-0.955l0.302-0.806
		c0.856,0,1.761,0.05,2.718,0.05c0.905,0,1.812-0.05,2.717-0.05l-0.151,0.806c-1.056,0.402-1.56,0.755-2.113,1.308
		c-0.502,1.158-2.263,6.19-4.326,12.127c-0.353,0.504-0.957,1.157-1.36,1.61h-0.25c-1.259-3.17-2.667-6.793-4.027-10.266h-0.049
		c-1.259,3.07-1.962,4.68-3.574,8.655c-0.351,0.504-0.955,1.258-1.357,1.61h-0.252c-1.207-3.572-3.774-10.869-4.83-13.687
		c-0.504-0.604-1.008-0.906-2.164-1.259l0.252-0.855c1.207,0,2.313,0.051,3.421,0.051c1.057,0,2.114-0.051,3.17-0.051
		L215.762,82.504z"/>
	<g>
		<path fill="#2D307F" d="M112.959,108.066c0.604-0.101,1.711-0.251,2.566-0.251c1.913,0,2.718,0.703,2.718,1.76
			c0,1.259-1.057,1.863-2.214,2.164l0,0c0.251,0.555,0.754,1.561,1.258,2.466c0.352,0.654,0.502,0.856,0.554,1.006l-0.101,0.103
			c-0.906,0-1.409-0.303-1.762-0.856c-0.403-0.554-0.905-1.459-1.409-2.616l0.05-0.102c1.208-0.301,2.214-0.854,2.214-2.063
			c0-0.956-0.654-1.409-1.711-1.409l-0.855,3.371c-0.402,1.511-0.604,2.365-0.705,2.868l1.006,0.403l-0.101,0.301
			c-0.554,0-1.107,0-1.711,0c-0.553,0-1.107,0-1.661,0l0.101-0.301l0.905-0.352c0.151-0.403,0.453-1.409,0.855-2.869l0.906-3.171
			l-0.957-0.149L112.959,108.066z"/>
		<path fill="#2D307F" d="M121.665,110.582c-0.504,0-1.208,0.856-1.561,2.113c0.554-0.101,1.459-0.353,1.711-0.754
			c0.151-0.202,0.202-0.453,0.202-0.806C122.017,110.733,121.866,110.582,121.665,110.582L121.665,110.582z M122.822,114.004
			c-0.604,0.806-1.51,1.359-2.465,1.359c-0.856,0-1.661-0.403-1.711-1.712c-0.05-1.408,1.208-3.472,3.17-3.472
			c0.905,0,1.358,0.504,1.358,1.208c0,0.302-0.1,0.604-0.352,0.755c-0.352,0.402-1.913,0.805-2.818,0.956
			c-0.05,0.201-0.101,0.403-0.05,0.604c0,0.503,0.201,1.007,0.855,1.007c0.754,0,1.509-0.604,1.912-1.058l0,0L122.822,114.004z"/>
		<path fill="#2D307F" d="M126.243,110.18c0.504,0,1.057,0.202,1.258,0.402c-0.1,0.353-0.402,0.956-0.554,1.157l-0.15,0.051
			c-0.05-0.201-0.152-0.654-0.201-1.157c-0.051-0.051-0.151-0.051-0.353-0.051c-0.502,0-0.855,0.353-0.855,0.705
			c0,0.352,0.353,0.654,0.906,1.056c0.654,0.555,0.906,0.907,0.906,1.46c0,0.704-0.705,1.561-2.063,1.561
			c-0.755,0-1.51-0.403-1.711-0.604c0.101-0.302,0.352-0.855,0.654-1.257l0.202-0.052c0.05,0.201,0.201,0.755,0.252,1.409
			c0.15,0.051,0.301,0.101,0.553,0.101c0.604,0,0.956-0.302,0.956-0.704c0-0.302-0.202-0.554-0.755-1.006
			c-0.754-0.604-0.906-1.007-0.906-1.409C124.281,110.783,125.187,110.18,126.243,110.18L126.243,110.18z"/>
		<path fill="#2D307F" d="M129.917,114.91c1.157,0,2.314-2.163,2.264-3.472c0-0.353-0.1-0.554-0.251-0.554
			c-0.251,0-0.705,0.302-1.409,1.157c-0.553,0.755-0.905,1.609-1.107,2.415C129.464,114.759,129.715,114.91,129.917,114.91
			L129.917,114.91z M128.256,110.935l0.101-0.251c0.302-0.201,1.711-0.554,2.114-0.604v0.051l-0.654,2.113l0,0
			c1.157-1.661,2.113-2.113,2.717-2.113s0.956,0.554,0.956,1.309c0,2.113-1.812,3.875-3.522,3.875c-0.302,0-0.604-0.102-0.805-0.252
			c-0.101,0.401-0.201,0.754-0.453,1.761l0.906,0.302l-0.151,0.303c-0.453,0.049-2.164,0.1-2.919,0.1l0.1-0.301l0.706-0.353
			c0.1-0.252,0.402-1.258,0.704-2.416c0.402-1.409,0.755-2.868,0.957-3.472L128.256,110.935z"/>
		<path fill="#2D307F" d="M136.66,107.815c0.151,0.1,0.402,0.604,0.402,0.805v0.05c-0.101,0.252-0.654,0.705-0.855,0.756h-0.101
			c-0.15-0.152-0.402-0.555-0.453-0.855v-0.052c0.302-0.452,0.755-0.703,0.957-0.754h0.05V107.815z M134.547,110.985l0.1-0.252
			c0.353-0.202,1.661-0.503,2.063-0.554l0.051,0.051c-0.655,2.112-1.258,4.127-1.359,4.528h0.05c0.453-0.101,1.158-0.855,1.41-1.157
			l0.05,0.201c-0.1,0.504-0.654,1.561-2.012,1.561c-0.503,0-0.806-0.353-0.554-1.258c0.1-0.303,0.502-1.661,0.956-3.02
			L134.547,110.985z"/>
		<path fill="#2D307F" d="M140.635,108.62l0.05,0.05l-0.504,1.661h1.409l-0.201,0.402l-1.358,0.151
			c-0.201,0.754-0.704,2.415-1.057,3.824l0.05,0.05c0.604-0.151,1.258-0.604,1.811-1.309l0.051,0.252
			c-0.454,1.409-1.761,1.661-2.315,1.661c-0.654,0-0.905-0.302-0.754-0.957c0.15-0.604,0.754-2.667,1.006-3.521l-0.856-0.151
			l0.252-0.402h0.805l0.302-1.058L140.635,108.62z"/>
		<path fill="#2D307F" d="M144.51,110.582c-0.503,0-1.208,0.856-1.56,2.113c0.554-0.101,1.459-0.353,1.711-0.754
			c0.151-0.202,0.201-0.453,0.201-0.806C144.862,110.733,144.711,110.582,144.51,110.582L144.51,110.582z M145.667,114.004
			c-0.604,0.806-1.51,1.359-2.466,1.359c-0.855,0-1.661-0.403-1.711-1.712c0-1.408,1.208-3.472,3.171-3.472
			c0.905,0,1.358,0.504,1.358,1.208c0,0.302-0.101,0.604-0.352,0.755c-0.353,0.402-1.912,0.805-2.818,0.956
			c-0.05,0.201-0.101,0.403-0.05,0.604c0,0.503,0.201,1.007,0.854,1.007c0.755,0,1.51-0.604,1.913-1.058l0,0L145.667,114.004z"/>
		<path fill="#2D307F" d="M155.43,108.066c0.603-0.101,1.711-0.251,2.515-0.251c1.912,0,2.719,0.703,2.719,1.76
			c0,1.259-1.057,1.863-2.215,2.164l0,0c0.252,0.555,0.756,1.561,1.258,2.466c0.353,0.654,0.503,0.856,0.554,1.006l-0.101,0.103
			c-0.907,0-1.408-0.303-1.761-0.856c-0.403-0.554-0.905-1.459-1.409-2.616l0.051-0.102c1.207-0.301,2.212-0.854,2.212-2.063
			c0-0.956-0.603-1.409-1.708-1.409l-0.856,3.371c-0.403,1.511-0.604,2.365-0.705,2.868l1.007,0.403l-0.15,0.301
			c-0.555,0-1.106,0-1.712,0c-0.554,0-1.106,0-1.66,0l0.101-0.301l0.906-0.352c0.151-0.403,0.453-1.409,0.855-2.869l0.905-3.171
			l-0.955-0.149L155.43,108.066z"/>
		<path fill="#2D307F" d="M164.135,110.582c-0.504,0-1.207,0.856-1.56,2.113c0.552-0.101,1.458-0.353,1.71-0.754
			c0.151-0.202,0.202-0.453,0.202-0.806C164.487,110.733,164.336,110.582,164.135,110.582L164.135,110.582z M165.293,114.004
			c-0.604,0.806-1.511,1.359-2.466,1.359c-0.856,0-1.661-0.403-1.711-1.712c0-1.408,1.207-3.472,3.169-3.472
			c0.905,0,1.358,0.504,1.358,1.208c0,0.302-0.151,0.604-0.351,0.755c-0.353,0.402-1.914,0.805-2.819,0.956
			c-0.05,0.201-0.101,0.403-0.05,0.604c0,0.503,0.201,1.007,0.856,1.007c0.753,0,1.509-0.604,1.91-1.058h0.05L165.293,114.004z"/>
		<path fill="#2D307F" d="M165.845,115.313c0.252-0.856,0.555-1.963,1.058-3.825c0.504-1.913,0.754-2.818,0.805-3.271l-0.805-0.151
			l0.102-0.251c0.451-0.202,1.761-0.354,2.162-0.354h0.052c-0.151,0.453-0.554,1.762-1.562,5.285h0.051
			c0.705-1.058,1.609-1.964,2.365-2.315c0.201-0.101,0.655-0.252,1.008-0.252c0.351,0,0.501,0.102,0.3,0.654
			c-0.453,1.46-0.955,3.17-1.005,3.623l1.005-0.051l-0.151,0.353c-0.652,0.201-2.011,0.604-2.365,0.755l-0.099-0.101
			c0.051-0.302,1.106-3.522,1.257-4.126c0.051-0.151,0-0.201-0.101-0.201c-0.353,0-1.357,1.006-2.013,2.113
			c-0.403,0.654-0.604,1.207-0.904,2.114H165.845z"/>
		<path fill="#2D307F" d="M173.493,114.607c0.303,0,0.907-0.352,1.812-1.71c0.454-0.654,0.604-1.158,0.856-1.963
			c-0.101-0.101-0.201-0.101-0.402-0.101c-0.303,0-0.754,0.151-1.258,0.704c-0.756,0.805-1.209,2.014-1.209,2.718
			C173.292,114.507,173.393,114.607,173.493,114.607L173.493,114.607z M177.771,110.13l0.05,0.101l-0.453,0.604
			c-0.403,1.107-0.804,2.718-1.006,3.673h0.051c0.552-0.149,1.056-0.754,1.308-1.057l0.101,0.102
			c-0.05,0.806-0.955,1.762-2.314,1.762c-0.151,0-0.303-0.052-0.403-0.052c0.101-0.503,0.453-1.56,0.604-2.163h-0.051
			c-0.854,1.208-1.861,2.215-2.767,2.215c-0.503,0-0.806-0.454-0.806-1.108c0-0.955,0.555-2.364,1.812-3.32
			c0.604-0.453,1.207-0.654,1.761-0.654c0.353,0,0.604,0.101,0.756,0.252l0.101-0.252L177.771,110.13z"/>
		<path fill="#2D307F" d="M180.086,114.91c1.258,0,2.366-2.215,2.315-3.472c0-0.403-0.151-0.604-0.302-0.604
			c-0.202,0-0.604,0.151-1.26,0.905c-0.703,0.756-1.207,1.963-1.257,2.718C179.583,114.81,179.784,114.91,180.086,114.91
			L180.086,114.91z M179.381,107.815c0.504-0.202,1.762-0.354,2.114-0.354h0.05c-0.151,0.453-0.554,1.812-1.357,4.429h0.05
			c1.006-1.309,1.862-1.761,2.465-1.761c0.604,0,1.007,0.554,1.007,1.309c0,2.163-1.812,3.875-3.673,3.875
			c-0.655,0-1.51-0.403-1.812-0.604c0.654-2.366,1.509-5.436,1.761-6.542l-0.705-0.151L179.381,107.815z"/>
		<path fill="#2D307F" d="M186.828,107.815c0.151,0.1,0.403,0.604,0.403,0.805l-0.051,0.05c-0.101,0.252-0.654,0.705-0.856,0.756
			h-0.048c-0.151-0.152-0.403-0.555-0.454-0.855v-0.052c0.303-0.452,0.754-0.703,0.955-0.754h0.051V107.815z M184.715,110.985
			l0.101-0.252c0.353-0.202,1.662-0.503,2.063-0.554l0.05,0.051c-0.652,2.112-1.257,4.127-1.357,4.528h0.05
			c0.453-0.101,1.156-0.855,1.408-1.157l0.051,0.201c-0.101,0.504-0.653,1.561-2.013,1.561c-0.502,0-0.804-0.353-0.555-1.258
			c0.104-0.303,0.504-1.661,0.957-3.02L184.715,110.985z"/>
		<path fill="#2D307F" d="M188.791,108.066l0.101-0.251c0.453-0.152,1.761-0.354,2.113-0.354l0,0
			c-0.201,0.705-0.504,1.611-1.106,3.674c-0.604,2.063-0.855,3.171-1.007,3.573v0.05c0.402-0.101,1.108-0.855,1.41-1.207l0.101,0.15
			c-0.101,0.655-0.755,1.711-2.015,1.711c-0.502,0-0.804-0.352-0.603-1.208c0.151-0.653,1.308-4.528,1.66-5.938L188.791,108.066z"/>
		<path fill="#2D307F" d="M193.673,107.815c0.151,0.1,0.403,0.604,0.403,0.805l-0.051,0.05c-0.101,0.252-0.655,0.705-0.856,0.756
			h-0.05c-0.151-0.152-0.403-0.555-0.454-0.855v-0.052c0.303-0.452,0.756-0.703,0.957-0.754h0.051V107.815L193.673,107.815z
			 M191.56,110.985l0.101-0.252c0.353-0.202,1.66-0.503,2.063-0.554l0.051,0.051c-0.654,2.112-1.259,4.127-1.358,4.528h0.051
			c0.451-0.101,1.156-0.855,1.408-1.157l0.051,0.201c-0.101,0.504-0.655,1.561-2.013,1.561c-0.504,0-0.807-0.353-0.555-1.258
			c0.101-0.303,0.504-1.661,0.955-3.02L191.56,110.985z"/>
		<path fill="#2D307F" d="M197.648,108.62l0.05,0.05l-0.504,1.661h1.409l-0.2,0.402l-1.359,0.151
			c-0.202,0.754-0.703,2.415-1.056,3.824v0.05c0.603-0.151,1.257-0.604,1.811-1.309l0.051,0.252
			c-0.453,1.409-1.761,1.661-2.315,1.661c-0.654,0-0.906-0.302-0.755-0.957c0.15-0.604,0.755-2.667,1.007-3.521l-0.856-0.151
			l0.252-0.402h0.807l0.302-1.058L197.648,108.62z"/>
		<path fill="#2D307F" d="M199.963,114.607c0.303,0,0.905-0.352,1.812-1.71c0.451-0.654,0.603-1.158,0.854-1.963
			c-0.101-0.101-0.201-0.101-0.403-0.101c-0.302,0-0.753,0.151-1.257,0.704c-0.754,0.805-1.207,2.014-1.207,2.718
			C199.762,114.507,199.862,114.607,199.963,114.607L199.963,114.607z M204.239,110.13l0.05,0.101l-0.451,0.604
			c-0.403,1.107-0.806,2.718-1.008,3.673h0.051c0.554-0.149,1.058-0.754,1.308-1.057l0.101,0.102
			c-0.05,0.806-0.955,1.762-2.314,1.762c-0.149,0-0.301-0.052-0.401-0.052c0.101-0.503,0.453-1.56,0.603-2.163h-0.051
			c-0.854,1.208-1.859,2.215-2.767,2.215c-0.503,0-0.806-0.454-0.806-1.108c0-0.955,0.555-2.364,1.812-3.32
			c0.604-0.453,1.209-0.654,1.761-0.654c0.353,0,0.604,0.101,0.756,0.252l0.101-0.252L204.239,110.13z"/>
		<path fill="#2D307F" d="M207.863,108.62l0.049,0.05l-0.502,1.661h1.408l-0.201,0.402l-1.358,0.151
			c-0.201,0.754-0.705,2.415-1.056,3.824v0.05c0.603-0.151,1.258-0.604,1.812-1.309l0.051,0.252
			c-0.454,1.409-1.764,1.661-2.315,1.661c-0.654,0-0.906-0.302-0.756-0.957c0.151-0.604,0.756-2.667,1.008-3.521l-0.856-0.151
			l0.252-0.402h0.806l0.301-1.058L207.863,108.62z"/>
		<path fill="#2D307F" d="M211.285,107.815c0.151,0.1,0.402,0.604,0.402,0.805v0.05c-0.103,0.252-0.654,0.705-0.855,0.756h-0.051
			c-0.151-0.152-0.403-0.555-0.453-0.855v-0.052c0.302-0.452,0.755-0.703,0.906-0.754h0.051V107.815L211.285,107.815z
			 M209.171,110.985l0.102-0.252c0.353-0.202,1.66-0.503,2.063-0.554l0.051,0.051c-0.655,2.112-1.258,4.127-1.36,4.528h0.051
			c0.453-0.101,1.158-0.855,1.41-1.157l0.051,0.201c-0.101,0.504-0.705,1.561-2.013,1.561c-0.504,0-0.807-0.353-0.555-1.258
			c0.101-0.303,0.504-1.661,0.955-3.02L209.171,110.985z"/>
		<path fill="#2D307F" d="M215.261,110.582c-0.856,0-1.661,1.963-1.661,3.321c0,0.704,0.202,1.057,0.553,1.057
			c0.856,0,1.66-1.912,1.66-3.371C215.813,111.035,215.663,110.582,215.261,110.582L215.261,110.582z M215.361,110.18
			c1.056,0,1.761,0.755,1.761,2.014c0,1.66-1.31,3.22-3.07,3.22c-1.006,0-1.762-0.704-1.762-1.911
			C212.29,111.689,213.699,110.18,215.361,110.18L215.361,110.18z"/>
		<path fill="#2D307F" d="M217.725,115.313c0.302-0.755,1.209-3.977,1.209-4.228l-0.806-0.101l0.101-0.252
			c0.353-0.151,1.812-0.503,2.113-0.554v0.051c-0.05,0.251-0.402,1.459-0.754,2.616l0,0c0.704-1.107,1.51-2.013,2.313-2.415
			c0.252-0.101,0.655-0.252,1.108-0.252c0.402,0,0.453,0.051,0.252,0.654c-0.403,1.409-0.907,3.17-1.008,3.572l1.008-0.049
			l-0.151,0.352c-0.604,0.201-2.013,0.604-2.365,0.754l-0.101-0.1c0.05-0.302,1.105-3.522,1.308-4.126
			c0.05-0.151,0-0.202-0.051-0.202c-0.502,0-1.408,1.057-2.013,2.114c-0.401,0.704-0.653,1.157-0.955,2.112L217.725,115.313z"/>
		<path fill="#2D307F" d="M233.074,108.066c0.603-0.101,1.711-0.251,2.564-0.251c1.912,0,2.719,0.703,2.719,1.76
			c0,1.259-1.058,1.863-2.215,2.164l0,0c0.252,0.555,0.756,1.561,1.258,2.466c0.353,0.654,0.503,0.856,0.604,1.006l-0.102,0.103
			c-0.904,0-1.408-0.303-1.761-0.856c-0.402-0.554-0.906-1.459-1.408-2.616l0.051-0.102c1.206-0.301,2.214-0.854,2.214-2.063
			c0-0.956-0.655-1.409-1.713-1.409l-0.854,3.371c-0.402,1.511-0.604,2.365-0.705,2.868l1.008,0.403l-0.101,0.301
			c-0.555,0-1.108,0-1.66,0c-0.555,0-1.108,0-1.662,0l0.101-0.301l0.906-0.352c0.151-0.403,0.453-1.409,0.854-2.869l0.906-3.171
			l-1.005-0.149V108.066z"/>
		<path fill="#2D307F" d="M241.778,110.582c-0.504,0-1.207,0.856-1.56,2.113c0.553-0.101,1.459-0.353,1.711-0.754
			c0.151-0.202,0.201-0.453,0.201-0.806C242.131,110.733,241.979,110.582,241.778,110.582L241.778,110.582z M242.937,114.004
			c-0.604,0.806-1.511,1.359-2.466,1.359c-0.856,0-1.66-0.403-1.711-1.712c-0.05-1.408,1.207-3.472,3.17-3.472
			c0.904,0,1.357,0.504,1.357,1.208c0,0.302-0.101,0.604-0.351,0.755c-0.353,0.402-1.914,0.805-2.818,0.956
			c-0.051,0.201-0.101,0.403-0.051,0.604c0,0.503,0.202,1.007,0.856,1.007c0.754,0,1.51-0.604,1.91-1.058h0.053L242.937,114.004z"/>
		<path fill="#2D307F" d="M245.149,114.607c0.302,0,0.906-0.352,1.812-1.71c0.453-0.654,0.604-1.158,0.856-1.963
			c-0.101-0.101-0.202-0.101-0.403-0.101c-0.302,0-0.754,0.151-1.257,0.704c-0.756,0.805-1.209,2.014-1.209,2.718
			C244.948,114.507,245.049,114.607,245.149,114.607L245.149,114.607z M249.427,110.13l0.051,0.101l-0.453,0.604
			c-0.401,1.107-0.805,2.718-1.006,3.673h0.051c0.554-0.149,1.056-0.754,1.308-1.057l0.101,0.102
			c-0.051,0.806-0.957,1.762-2.315,1.762c-0.151,0-0.3-0.052-0.402-0.052c0.103-0.503,0.453-1.56,0.604-2.163h-0.05
			c-0.854,1.208-1.862,2.215-2.767,2.215c-0.504,0-0.806-0.454-0.806-1.108c0-0.955,0.554-2.364,1.812-3.32
			c0.604-0.453,1.207-0.654,1.761-0.654c0.353,0,0.604,0.101,0.756,0.252l0.101-0.252L249.427,110.13z"/>
		<path fill="#2D307F" d="M252.697,110.18c0.504,0,1.058,0.202,1.259,0.402c-0.101,0.353-0.402,0.956-0.554,1.157l-0.151,0.051
			c-0.05-0.201-0.15-0.654-0.201-1.157c-0.051-0.051-0.151-0.051-0.353-0.051c-0.502,0-0.854,0.353-0.854,0.705
			c0,0.352,0.353,0.654,0.904,1.056c0.655,0.555,0.856,0.907,0.856,1.46c0,0.704-0.705,1.561-2.063,1.561
			c-0.754,0-1.51-0.403-1.711-0.604c0.101-0.302,0.353-0.855,0.654-1.257l0.2-0.052c0.052,0.201,0.15,0.755,0.252,1.409
			c0.15,0.051,0.302,0.101,0.554,0.101c0.604,0,0.955-0.302,0.955-0.704c0-0.302-0.199-0.554-0.754-1.006
			c-0.755-0.604-0.904-1.007-0.904-1.409C250.736,110.783,251.691,110.18,252.697,110.18L252.697,110.18z"/>
		<path fill="#2D307F" d="M256.874,110.18c0.504,0,1.058,0.202,1.259,0.402c-0.101,0.353-0.402,0.956-0.554,1.157l-0.151,0.051
			c-0.05-0.201-0.15-0.654-0.201-1.157c-0.051-0.051-0.151-0.051-0.353-0.051c-0.504,0-0.854,0.353-0.854,0.705
			c0,0.352,0.351,0.654,0.905,1.056c0.654,0.555,0.855,0.907,0.855,1.46c0,0.704-0.705,1.561-2.063,1.561
			c-0.756,0-1.51-0.403-1.711-0.604c0.101-0.302,0.353-0.855,0.655-1.257l0.148-0.052c0.051,0.201,0.202,0.755,0.252,1.409
			c0.151,0.051,0.303,0.101,0.555,0.101c0.604,0,0.955-0.302,0.955-0.704c0-0.302-0.202-0.554-0.754-1.006
			c-0.756-0.604-0.907-1.007-0.907-1.409C254.911,110.783,255.868,110.18,256.874,110.18L256.874,110.18z"/>
		<path fill="#2D307F" d="M258.938,110.935l0.101-0.251c0.453-0.201,1.711-0.453,2.214-0.554h0.102
			c-0.303,0.805-1.157,3.472-1.308,4.126c-0.051,0.201-0.051,0.251,0.101,0.251c0.504,0,1.459-1.005,2.113-2.164
			c0.351-0.604,0.552-1.105,0.854-2.012c0.403-0.101,0.957-0.151,1.408-0.201l0.051,0.101l-0.452,0.604
			c-0.251,0.654-0.705,2.416-1.007,3.673l0,0c0.705-0.2,1.106-0.704,1.257-0.955l0.102,0.201c-0.102,0.604-0.805,1.561-2.213,1.561
			c-0.201,0-0.353-0.052-0.504-0.052c0.151-0.452,0.351-1.258,0.754-2.415h-0.049c-0.654,1.007-1.359,1.812-2.113,2.215
			c-0.302,0.15-0.655,0.302-1.008,0.302s-0.705-0.102-0.503-0.906c0.302-1.157,0.806-2.718,1.007-3.371L258.938,110.935z"/>
		<path fill="#2D307F" d="M265.379,110.684c0.353-0.201,1.459-0.504,1.812-0.554l0,0c0.05,0.353-0.051,1.006-0.252,1.912h0.051
			c0.957-1.761,1.66-1.912,2.113-1.912c0.201,0,0.353,0.05,0.453,0.151c0,0.301-0.403,1.308-0.604,1.56l-0.151,0.101
			c-0.101-0.151-0.201-0.503-0.353-0.956c-0.05,0-0.05,0-0.05,0c-0.151,0-0.653,0.302-1.358,1.912
			c-0.252,0.553-0.453,1.308-0.756,2.314l-1.257,0.102c0.604-1.913,1.058-3.775,1.108-4.228l-0.807-0.101L265.379,110.684z"/>
		<path fill="#2D307F" d="M270.712,114.607c0.303,0,0.907-0.352,1.812-1.71c0.454-0.654,0.604-1.158,0.856-1.963
			c-0.101-0.101-0.201-0.101-0.402-0.101c-0.303,0-0.756,0.151-1.258,0.704c-0.756,0.805-1.209,2.014-1.209,2.718
			C270.511,114.507,270.611,114.607,270.712,114.607L270.712,114.607z M274.939,110.13l0.051,0.101l-0.453,0.604
			c-0.403,1.107-0.805,2.718-1.006,3.673h0.05c0.553-0.149,1.057-0.754,1.309-1.057l0.101,0.102
			c-0.051,0.806-0.957,1.762-2.315,1.762c-0.151,0-0.302-0.052-0.403-0.052c0.102-0.503,0.454-1.56,0.604-2.163h-0.05
			c-0.856,1.208-1.862,2.215-2.767,2.215c-0.504,0-0.806-0.454-0.806-1.108c0-0.955,0.554-2.364,1.811-3.32
			c0.604-0.453,1.207-0.654,1.762-0.654c0.353,0,0.604,0.101,0.755,0.252l0.102-0.252L274.939,110.13z"/>
		<path fill="#2D307F" d="M275.494,115.313c0.302-0.755,1.206-3.977,1.206-4.228l-0.806-0.101l0.103-0.252
			c0.351-0.151,1.812-0.503,2.112-0.554l0.05,0.051c-0.05,0.251-0.402,1.459-0.753,2.616l0,0c0.703-1.107,1.509-2.013,2.314-2.415
			c0.25-0.101,0.653-0.252,1.106-0.252c0.403,0,0.453,0.051,0.302,0.654c-0.402,1.409-0.906,3.17-1.007,3.572l1.007-0.049
			l-0.15,0.352c-0.604,0.201-2.014,0.604-2.366,0.754l-0.101-0.1c0.051-0.302,1.108-3.522,1.258-4.126
			c0.05-0.151,0.05-0.202-0.049-0.202c-0.504,0-1.41,1.057-2.015,2.114c-0.401,0.704-0.653,1.157-0.955,2.112L275.494,115.313z"/>
		<path fill="#2D307F" d="M285.858,114.004c-0.502,0.705-1.258,1.359-2.416,1.359c-1.106,0-1.609-0.805-1.609-1.762
			c0-0.755,0.302-1.761,1.158-2.516c0.703-0.604,1.459-0.906,2.214-0.906c0.553,0,0.955,0.202,1.057,0.303
			c-0.051,0.201-0.403,1.056-0.555,1.308l-0.201,0.101c-0.099-0.151-0.199-0.704-0.351-1.258c-0.051,0-0.101,0-0.101,0
			c-0.252,0-0.655,0.15-1.059,0.604c-0.554,0.653-0.804,1.51-0.804,2.265c0,0.754,0.303,1.156,0.854,1.156
			c0.756,0,1.459-0.654,1.711-1.007h0.05L285.858,114.004z"/>
		<path fill="#2D307F" d="M289.533,110.582c-0.504,0-1.209,0.856-1.562,2.113c0.555-0.101,1.459-0.353,1.711-0.754
			c0.151-0.202,0.201-0.453,0.201-0.806C289.935,110.733,289.733,110.582,289.533,110.582L289.533,110.582z M290.69,114.004
			c-0.604,0.806-1.512,1.359-2.467,1.359c-0.856,0-1.66-0.403-1.711-1.712c0-1.408,1.209-3.472,3.17-3.472
			c0.906,0,1.36,0.504,1.36,1.208c0,0.302-0.151,0.604-0.353,0.755c-0.353,0.402-1.912,0.805-2.819,0.956
			c-0.05,0.201-0.101,0.403-0.05,0.604c0,0.503,0.201,1.007,0.855,1.007c0.706,0,1.51-0.604,1.912-1.058l0,0L290.69,114.004z"/>
	</g>
	<path fill="#2D307F" d="M96.203,100.217c-0.151-5.435-0.252-9.562-0.252-19.424c-2.717,10.416-12.127,13.788-24.657,16.053
		c-11.725,2.113-24.707,8.051-24.808,17.41c7.397,2.97,10.265,9.31,10.617,15.499c3.522-1.409,10.416-3.976,14.19-4.479
		C84.88,123.214,96.706,115.715,96.203,100.217"/>
	<path fill="#2D307F" d="M1.852,80.29c-0.402,16.404,14.291,25.109,28.682,27.122c3.976,0.554,8.051,1.61,11.775,3.07
		c0.05-9.913,13.637-16.656,26.116-18.568c12.932-1.963,26.015-9.31,28.079-22.745c-0.05-8.403-0.1-17.662-0.151-26.669
		c-0.151-14.442-0.151-22.191-0.151-42.42L1.5,0.583C1.852,29.466,2.254,63.785,1.852,80.29"/>
	<path fill="#FFFFFF" d="M35.567,10.596c2.466,0,5.384,1.711,5.434,5.233c0.05,3.925-2.918,5.586-5.384,5.586
		c-2.718,0-5.485-1.762-5.485-5.284C30.132,12.508,33.101,10.596,35.567,10.596L35.567,10.596z M35.466,11.301
		c-2.265,0-3.623,1.862-3.623,4.529c0,2.466,1.51,4.881,3.925,4.881c2.616,0,3.572-2.465,3.572-4.73
		C39.291,13.464,37.73,11.301,35.466,11.301L35.466,11.301z"/>
	<path fill="#FFFFFF" d="M42.46,14.823l0.151-0.453c0.403-0.101,1.458-0.251,2.113-0.251c-0.05,0.705-0.1,1.913-0.1,4.529
		c0,0.654,0.151,0.906,0.302,1.106c0.201,0.251,0.554,0.453,1.107,0.453c0.654,0,1.358-0.302,1.711-0.906v-3.875
		c-0.05-0.302-0.251-0.403-1.057-0.705l0.202-0.453c0.502-0.151,1.66-0.251,2.264-0.251c-0.05,0.755-0.05,1.711-0.05,5.686
		c0.301,0.554,0.754,0.805,1.258,0.906l-0.151,0.352c-0.151,0.101-0.503,0.202-0.957,0.202c-0.553,0-1.258-0.252-1.459-1.158h-0.05
		c-0.554,0.604-1.309,1.158-2.264,1.158c-0.554,0-1.158-0.202-1.611-0.604c-0.402-0.402-0.604-1.057-0.604-2.013
		c0-1.007,0.05-2.466,0.05-3.522L42.46,14.823z"/>
	<path fill="#FFFFFF" d="M51.518,14.571c0.252-0.151,1.359-0.503,1.812-0.553c0.102,0.402,0.152,1.006,0.152,1.459h0.05
		c0.654-1.057,1.51-1.459,2.164-1.459c0.352,0,0.654,0.101,0.805,0.302c-0.05,0.503-0.352,1.409-0.553,1.711l-0.251,0.1
		c-0.151-0.201-0.352-0.503-0.553-1.006c-0.05-0.051-0.152-0.051-0.252-0.051c-0.453,0-1.158,0.604-1.409,1.258v3.825l1.661,0.402
		l-0.101,0.503c-0.705,0-1.459,0-2.214,0c-0.553,0-1.208,0-1.711,0l0.102-0.503l0.905-0.453c0.051-1.157,0.051-4.075,0.051-4.78
		l-0.855-0.453L51.518,14.571z"/>
	<path fill="#FFFFFF" d="M33.755,22.774c0.553,0,1.157,0,1.812,0s1.308,0,1.912,0l-0.201,0.554l-1.007,0.402v3.925
		c0,2.466,0.051,4.277,0.051,4.479l3.271,0.201c0.353-0.503,1.107-1.71,1.459-2.063l0.403-0.05
		c-0.101,0.855-0.403,2.415-0.553,2.817c-0.604,0-2.063-0.05-5.334-0.05h-2.214l0.15-0.503l1.258-0.403
		c0.051-0.201,0.051-2.013,0.051-4.428V23.68l-1.309-0.453L33.755,22.774z"/>
	<path fill="#FFFFFF" d="M46.838,28.61c0-1.56-0.755-1.861-1.56-1.861c-0.302,0-0.705,0.101-0.906,0.302
		c-0.05,0.403-0.151,1.157-0.251,1.51l-0.252,0.101c-0.201-0.101-0.854-0.957-1.006-1.359c0.302-0.302,1.208-0.805,1.963-1.106
		c0.352-0.101,0.704-0.252,1.107-0.252c1.66,0,2.214,1.409,2.214,2.365c0,1.107-0.05,2.416-0.05,3.422
		c0.302,0.554,0.905,0.856,1.207,0.906l-0.15,0.353c-0.151,0.05-0.402,0.201-0.805,0.201c-1.007,0-1.359-0.453-1.51-0.906l0,0
		c-0.654,0.654-1.409,0.906-1.912,0.906c-1.409,0-2.063-1.057-2.063-1.862c0-0.704,0.302-1.158,0.654-1.358
		c0.705-0.352,2.063-0.805,3.321-1.107V28.61L46.838,28.61z M44.272,31.127c0,0.855,0.805,1.157,1.309,1.157
		c0.352,0,0.754-0.151,1.057-0.503c0.1-0.1,0.15-0.251,0.15-0.352l0.051-1.862c-0.705,0.201-1.51,0.453-1.962,0.705
		C44.473,30.473,44.272,30.674,44.272,31.127L44.272,31.127z"/>
	<path fill="#FFFFFF" d="M56.701,31.781c0.352,0.554,0.906,0.855,1.208,0.956l-0.151,0.353c-0.15,0.1-0.353,0.15-0.755,0.15
		c-0.554,0-1.258-0.251-1.56-0.855h-0.05c-0.251,0.202-1.157,0.855-1.862,0.855c-1.258,0-3.321-0.956-3.321-3.472
		c0-2.566,2.214-3.824,3.773-3.824c0.252,0,0.806,0.151,1.309,0.453l0,0c0-1.106,0-1.912-0.05-3.019l-1.057-0.402l0.201-0.403
		c0.352-0.15,1.258-0.352,2.315-0.503c-0.05,1.56-0.05,3.019-0.05,4.73v4.981H56.701L56.701,31.781z M55.343,27.102
		c-0.403-0.251-0.855-0.353-1.158-0.353c-1.409,0-2.516,1.258-2.516,2.717c0,1.51,1.057,2.718,2.416,2.718
		c0.301,0,0.704-0.101,1.258-0.454V27.102z"/>
	<path fill="#FFFFFF" d="M63.192,26.145c0.353,0,0.755,0,1.107,0c0.453,0,0.956,0,1.409,0l-0.1,0.503
		c-0.554,0.202-0.805,0.453-1.007,0.704c-0.453,0.906-1.812,4.277-3.17,7.498c-0.201,0.705-0.251,1.308-0.402,1.862
		c-0.101,0.05-0.252,0.05-0.403,0.05c-0.553,0-1.107-0.353-1.258-0.604c0.151-0.352,0.805-1.106,1.459-1.862
		c0.201-0.453,0.453-0.956,0.654-1.459c-0.151-0.302-1.661-4.428-2.165-5.536c-0.201-0.352-0.352-0.503-1.157-0.704l0.202-0.503
		c0.503,0,1.006,0,1.459,0c0.502,0,1.057,0,1.61,0l-0.151,0.554l-0.554,0.302c0.201,0.604,0.654,1.912,1.51,4.177h0.051
		c0.553-1.509,1.258-3.321,1.509-4.177l-0.704-0.352L63.192,26.145z"/>
	<path fill="#FFFFFF" d="M66.614,25.692c0.553-0.453,1.057-1.158,1.057-1.761c0-0.302-0.051-0.453-0.152-0.554l-0.654-0.302v-0.251
		l1.258-0.755h0.202c0.201,0.101,0.604,0.604,0.604,1.308c0,1.007-0.705,2.063-2.013,2.818L66.614,25.692z"/>
	<path fill="#FFFFFF" d="M71.797,25.944c0.353,0,0.805,0.101,1.208,0.352c0.25-0.151,0.502-0.302,0.805-0.402l0.151,0.151
		c0,0.202-0.202,1.56-0.403,1.962l-0.302,0.101c-0.15-0.302-0.352-0.755-0.553-1.208c-0.101-0.101-0.403-0.251-0.906-0.251
		c-0.755,0-1.157,0.503-1.157,1.006c0,0.352,0.101,0.553,0.504,0.805c0.402,0.252,1.458,0.654,2.063,0.956
		c0.855,0.453,1.106,1.006,1.106,1.61c0,1.761-1.862,2.214-2.868,2.214c-0.855,0-1.711-0.302-2.315-0.654
		c0-0.252,0.252-1.56,0.353-1.762l0.302-0.151c0.251,0.402,0.554,1.258,0.805,1.711c0.252,0.101,0.604,0.151,0.957,0.151
		c0.855,0,1.409-0.503,1.409-1.057c0-0.402-0.101-0.654-0.604-0.905c-0.453-0.251-1.006-0.503-1.61-0.755
		c-0.855-0.402-1.359-1.006-1.359-1.862C69.432,27.051,70.136,25.944,71.797,25.944L71.797,25.944z"/>
	<path fill="#FFFFFF" d="M21.477,67.105c0.806,0,1.309,0.252,1.611,0.453c0.201-0.15,0.704-0.353,1.107-0.503l0.151,0.101
		c-0.05,0.504-0.353,1.962-0.554,2.466l-0.352,0.151c-0.202-0.354-0.454-1.309-0.554-1.561c-0.152-0.101-0.604-0.403-1.309-0.403
		c-1.208,0-1.912,0.806-1.912,1.712c0,0.755,0.353,1.156,0.855,1.459c0.654,0.402,1.51,0.805,2.416,1.258
		c1.561,0.806,1.862,1.66,1.862,2.566c0,2.466-2.314,3.12-3.724,3.12c-1.208,0-2.616-0.554-3.12-1.057
		c0.1-0.454,0.554-1.812,0.704-2.014l0.302-0.149c0.101,0.149,0.151,0.553,0.554,2.163c0.251,0.101,0.705,0.302,1.51,0.302
		c1.308,0,2.264-0.756,2.264-1.963c0-0.704-0.302-1.207-1.057-1.61c-0.855-0.452-1.661-0.805-2.415-1.258
		c-1.057-0.654-1.51-1.509-1.51-2.415C18.307,68.565,19.414,67.105,21.477,67.105L21.477,67.105z"/>
	<path fill="#FFFFFF" d="M27.767,74.101v0.15c0,1.661,1.057,2.667,2.415,2.667c0.252,0,0.453-0.05,0.554-0.101
		c0.503-0.301,0.957-0.604,1.309-0.805l0.101,0.353c-0.101,0.352-0.755,1.006-0.957,1.156c-0.251,0.102-1.006,0.353-1.61,0.353
		c-1.962,0-3.322-1.308-3.322-3.522c0-2.214,1.611-3.773,3.372-3.773c1.459,0,2.718,0.956,2.718,2.768c0,0.2-0.05,0.503-0.152,0.553
		C32.044,74,31.44,74.15,30.686,74.15h-2.918V74.101z M30.887,73.396c0.05-0.151,0.05-0.303,0.05-0.454
		c0-1.006-0.503-1.71-1.358-1.71c-1.258,0-1.761,1.509-1.761,2.164H30.887L30.887,73.396z"/>
	<path fill="#FFFFFF" d="M33.755,71.081c0.251-0.101,1.358-0.503,1.862-0.553c0.1,0.401,0.151,1.006,0.151,1.458h0.05
		c0.654-1.057,1.509-1.458,2.164-1.458c0.352,0,0.654,0.101,0.805,0.302c-0.051,0.503-0.352,1.408-0.503,1.71l-0.251,0.152
		c-0.151-0.202-0.352-0.504-0.604-1.008c-0.05-0.05-0.151-0.05-0.252-0.05c-0.453,0-1.157,0.604-1.409,1.259v3.823l1.661,0.403
		l-0.101,0.503c-0.704,0-1.409,0-2.214,0c-0.553,0-1.157,0-1.711,0l0.101-0.503l0.906-0.454c0.049-1.156,0.049-4.075,0.049-4.78
		l-0.855-0.452L33.755,71.081z"/>
	<path fill="#FFFFFF" d="M39.693,70.729c0.453,0,0.956,0,1.459,0c0.553,0,1.057,0,1.56,0l-0.151,0.554l-0.554,0.303
		c0.302,0.855,0.906,2.364,1.61,4.177h0.05c0.251-0.705,0.604-1.561,1.561-4.127l-0.805-0.402l0.15-0.555c0.302,0,0.805,0,1.208,0
		c0.454,0,0.956,0,1.359,0l-0.151,0.555c-0.554,0.201-0.704,0.353-1.006,0.704c-0.202,0.353-1.61,3.673-2.164,5.082
		c-0.151,0.303-0.453,0.654-0.654,0.855h-0.15c-0.152-0.301-1.108-2.817-2.366-5.938c-0.302-0.453-0.554-0.554-1.157-0.755
		L39.693,70.729z"/>
	<path fill="#FFFFFF" d="M47.946,71.03c0.251-0.101,1.208-0.353,2.113-0.452v3.17c0,1.762,0,2.617,0,3.019l1.158,0.403l-0.152,0.503
		c-0.553,0-1.157,0-1.761,0c-0.503,0-1.006,0-1.61,0l0.151-0.503l0.906-0.403c0-0.401,0-1.761,0-3.019v-1.862l-0.856-0.402
		L47.946,71.03z M49.404,67.357c0.252,0.051,0.705,0.604,0.855,0.956l-0.05,0.101c-0.151,0.303-0.654,0.806-0.906,0.956l-0.101,0.05
		c-0.302-0.15-0.704-0.653-0.855-0.955l0.05-0.151c0.251-0.403,0.654-0.805,0.905-0.956H49.404z"/>
	<path fill="#FFFFFF" d="M52.172,74.302c0-2.617,2.265-3.724,4.076-3.724c0.906,0,1.762,0.352,1.963,0.604
		c-0.101,0.403-0.251,1.157-0.554,1.712l-0.352,0.15c-0.102-0.303-0.352-0.906-0.504-1.61c-0.1-0.051-0.251-0.101-0.604-0.101
		c-1.66,0-2.566,1.359-2.566,2.868c0,1.711,1.057,2.868,2.768,2.868c0.101,0,0.302-0.101,0.453-0.151
		c0.554-0.401,1.007-0.704,1.309-0.855l0.151,0.303c-0.151,0.452-0.755,1.156-1.057,1.357c-0.251,0.102-0.956,0.252-1.459,0.252
		C54.335,77.874,52.172,76.969,52.172,74.302L52.172,74.302z"/>
	<path fill="#FFFFFF" d="M60.676,74.101v0.15c0,1.661,1.057,2.667,2.416,2.667c0.252,0,0.453-0.05,0.553-0.101
		c0.503-0.301,1.006-0.604,1.359-0.805l0.101,0.353c-0.101,0.352-0.754,1.006-0.956,1.156c-0.251,0.102-1.006,0.353-1.61,0.353
		c-1.963,0-3.321-1.308-3.321-3.522c0-2.214,1.61-3.773,3.371-3.773c1.409,0,2.717,0.956,2.717,2.768c0,0.2-0.05,0.503-0.15,0.553
		c-0.152,0.102-0.756,0.252-1.51,0.252h-2.969V74.101z M63.796,73.396c0.051-0.151,0.051-0.303,0.051-0.454
		c0-1.006-0.503-1.71-1.359-1.71c-1.258,0-1.761,1.509-1.761,2.164H63.796L63.796,73.396z"/>
	<path fill="#FFFFFF" d="M69.08,70.578c0.352,0,0.805,0.1,1.208,0.352c0.252-0.151,0.503-0.301,0.805-0.401l0.151,0.149
		c0,0.202-0.202,1.561-0.402,1.964l-0.302,0.15c-0.152-0.302-0.353-0.755-0.554-1.258c-0.05-0.101-0.402-0.252-0.905-0.252
		c-0.805,0-1.158,0.503-1.158,1.007c0,0.353,0.102,0.553,0.504,0.805s1.459,0.654,2.063,0.956c0.855,0.453,1.106,1.007,1.106,1.61
		c0,1.762-1.862,2.214-2.868,2.214c-0.855,0-1.71-0.301-2.314-0.654c0-0.251,0.251-1.56,0.352-1.761l0.302-0.15
		c0.252,0.401,0.554,1.258,0.755,1.71c0.252,0.102,0.604,0.151,0.956,0.151c0.855,0,1.409-0.504,1.409-1.057
		c0-0.403-0.101-0.654-0.604-0.906c-0.453-0.251-1.007-0.502-1.61-0.754c-0.856-0.403-1.359-1.007-1.359-1.862
		C66.715,71.685,67.419,70.578,69.08,70.578L69.08,70.578z"/>
	<path fill="#FFFFFF" d="M12.772,35.455c0.905,0,1.811,0,2.667,0c0.856,0,1.661,0,2.516,0l-0.201,0.604l-0.957,0.654v4.227h5.485
		v-4.277l-0.956-0.654l0.15-0.553c0.755,0,1.51,0,2.264,0c1.007,0,2.014,0,3.02,0l-0.151,0.553L25.1,36.712v4.982
		c0,2.214,0.05,5.183,0.151,5.434l1.711,0.705l-0.151,0.553c-0.957,0-1.963,0-2.969,0c-0.856,0-1.761,0-2.617,0l0.202-0.553
		l0.905-0.705c0.051-1.761,0-3.472,0-5.183c-0.503,0.101-1.358,0.151-2.314,0.151h-3.17c0,1.409-0.051,3.12,0,5.032l1.207,0.705
		l-0.15,0.553c-0.855,0-1.711,0-2.516,0c-0.956,0-1.962,0-2.968,0l0.15-0.553l1.409-0.705c0.05-0.453,0.101-3.17,0.101-5.585v-4.831
		l-1.459-0.705L12.772,35.455z"/>
	<path fill="#FFFFFF" d="M32.749,39.43c2.868,0,4.73,1.862,4.73,4.528c0,2.819-1.963,4.73-4.78,4.73
		c-2.567,0-4.781-1.71-4.781-4.528C27.968,41.241,30.283,39.43,32.749,39.43L32.749,39.43z M32.648,40.235
		c-1.308,0-1.761,2.063-1.761,3.522c0,1.711,0.553,4.077,2.012,4.077c1.409,0,1.661-2.315,1.661-3.673
		C34.561,42.6,34.107,40.235,32.648,40.235L32.648,40.235z"/>
	<path fill="#FFFFFF" d="M42.411,39.43c0.452,0,1.006,0.101,1.509,0.453c0.353-0.252,0.755-0.453,1.158-0.604l0.202,0.101
		c-0.05,0.956-0.302,2.264-0.503,2.717l-0.352,0.101c-0.252-0.403-0.554-1.006-0.755-1.509c-0.101-0.101-0.453-0.353-1.157-0.353
		c-0.855,0-1.258,0.604-1.258,1.006c0,0.353,0.251,0.705,0.754,0.957c1.007,0.452,1.61,0.805,2.365,1.208
		c1.107,0.604,1.409,1.358,1.409,2.163c0,2.466-2.516,3.02-3.975,3.02c-1.208,0-2.416-0.452-2.969-0.805
		c0-0.604,0.352-2.163,0.503-2.516l0.302-0.151c0.352,0.604,0.906,1.762,1.258,2.466c0.301,0.101,0.604,0.201,1.057,0.201
		c0.855,0,1.459-0.553,1.459-1.208c0-0.403-0.152-0.654-0.705-0.956c-0.503-0.252-1.057-0.554-1.711-0.906
		c-1.208-0.604-1.962-1.308-1.962-2.617C39.189,40.838,40.247,39.43,42.411,39.43L42.411,39.43z"/>
	<path fill="#FFFFFF" d="M50.663,40.537h0.05c1.358-0.855,2.013-1.157,2.416-1.157c1.61,0,3.825,1.458,3.825,4.176
		c0,3.624-2.868,5.033-4.73,5.033c-0.251,0-0.755-0.151-1.51-0.554h-0.05c0,1.057,0.05,2.416,0.101,3.17l1.812,0.705l-0.151,0.202
		c-1.359-0.705-2.315-0.454-3.271-0.454c-0.906,0-1.459,0.805-2.366,0.805l0.202-0.604l0.957-0.604c0-0.453,0.1-2.314,0.1-5.132
		V40.99l-1.057-0.705l0.151-0.453c0.251-0.1,2.566-0.452,3.623-0.503L50.663,40.537z M50.713,47.28
		c0.252,0.101,0.554,0.151,0.906,0.151c1.358,0,2.616-1.158,2.616-3.321c0-2.113-1.358-3.12-2.566-3.12
		c-0.302,0-0.554,0.05-0.956,0.251V47.28z"/>
	<path fill="#FFFFFF" d="M58.312,40.034c0.302-0.101,2.164-0.553,3.623-0.654v4.075c0,2.214,0,3.322,0.051,3.724l1.309,0.604
		l-0.102,0.554c-0.905,0-1.71,0-2.616,0c-0.805,0-1.711,0-2.466,0l0.101-0.554l1.056-0.604c0-0.705,0.05-2.214,0.05-3.774V41.04
		l-1.106-0.554L58.312,40.034z"/>
	<path fill="#FFFFFF" d="M64.148,44.21c0-3.271,2.818-4.78,5.334-4.78c1.409,0,2.365,0.453,2.768,0.755
		c-0.1,0.402-0.503,1.761-0.906,2.416l-0.353,0.101c-0.201-0.353-0.553-1.359-0.805-2.314c-0.101-0.051-0.302-0.101-0.503-0.101
		c-1.862,0-2.718,1.761-2.718,3.573c0,1.962,1.057,3.573,2.969,3.623c0.151,0,0.353-0.05,0.503-0.1
		c0.604-0.402,1.309-0.855,1.711-1.057l0.201,0.403c-0.151,0.503-0.957,1.51-1.309,1.711c-0.301,0.101-1.157,0.352-1.862,0.352
		C66.614,48.639,64.148,47.38,64.148,44.21L64.148,44.21z"/>
	<path fill="#FFFFFF" d="M76.175,44.009c0,0.101,0,0.151,0,0.251c-0.051,1.862,1.157,3.12,2.717,3.12c0.151,0,0.302,0,0.503-0.05
		c0.604-0.504,1.51-1.107,1.962-1.309l0.1,0.353c-0.15,0.704-1.157,1.71-1.509,1.912c-0.353,0.151-1.258,0.402-2.063,0.402
		c-2.768,0-4.529-1.71-4.529-4.528c0-2.717,2.113-4.73,4.529-4.73c2.113,0,3.773,1.308,3.773,3.573c0,0.302-0.1,0.553-0.202,0.654
		c-0.15,0.1-0.905,0.352-2.063,0.352H76.175z M78.892,43.153c0.051-0.15,0.101-0.402,0.101-0.653c0-1.359-0.453-2.265-1.258-2.265
		c-1.007,0-1.611,1.761-1.611,2.868h2.768V43.153z"/>
	<path fill="#FFFFFF" d="M38.334,64.238c-0.453,0.201-0.956,0.251-1.509,0.251c-1.258,0-2.264-0.604-3.724-1.812
		c-1.258,1.309-2.617,1.812-3.674,1.812c-2.012,0-4.176-1.257-4.176-3.773c0-0.906,0.403-1.661,1.208-2.315
		c0.654-0.503,1.057-0.855,1.459-1.107c-0.705-0.957-1.006-1.812-1.006-2.768c0-1.61,1.358-3.17,3.17-3.17l0,0
		c1.761,0,2.817,1.158,2.817,2.618c0,0.956-0.553,1.61-1.258,2.113c-0.705,0.554-1.258,0.855-1.711,1.158
		c0.957,1.157,2.768,2.868,3.673,3.572c0.855-1.106,1.711-2.868,1.912-3.472l-0.352-1.358l0.1-0.101
		c0.855,0,2.516,0.503,2.868,0.805l-0.05,0.152l-1.208,0.905c-1.006,1.561-2.012,2.969-2.566,3.674
		c0.956,0.705,2.718,2.013,4.227,2.314L38.334,64.238z M28.371,57.947c-0.805,0.654-1.308,1.258-1.308,2.265
		c0,1.711,1.409,2.918,3.02,2.918c0.805,0,1.61-0.201,2.365-1.006v-0.051C31.591,61.319,29.427,59.256,28.371,57.947L28.371,57.947z
		 M29.528,56.689c1.208-0.854,2.012-1.71,2.012-2.716s-0.653-1.711-1.509-1.711l0,0c-1.006,0-1.61,0.906-1.61,1.912
		C28.421,55.129,28.874,55.884,29.528,56.689L29.528,56.689z"/>
	<path fill="#FFFFFF" d="M49.253,50.903c1.459,0,2.366,0.302,2.969,0.654c0.604-0.252,1.409-0.403,1.862-0.453l0.1,0.1
		c-0.05,0.604-0.654,3.12-0.856,3.623l-0.452,0.202c-0.302-0.755-0.654-1.913-0.855-2.617c-0.353-0.201-1.006-0.402-1.913-0.402
		c-3.372,0-5.183,2.768-5.183,5.787s1.811,5.787,5.333,5.787c0.353,0,0.554,0,0.805-0.101c1.158-1.157,2.164-2.013,2.918-2.616
		l0.352,0.402c-0.301,0.906-1.257,2.466-1.56,2.868c-0.604,0.202-2.315,0.504-3.321,0.504c-3.774,0-7.548-2.063-7.548-6.743
		C41.856,53.016,46.083,50.903,49.253,50.903L49.253,50.903z"/>
	<path fill="#FFFFFF" d="M60.476,58.3c0.05-1.509-0.906-1.963-1.611-1.963c-0.453,0-0.805,0.102-1.006,0.202
		c-0.101,0.805-0.251,1.963-0.403,2.365l-0.15,0.151c-0.202-0.05-1.409-0.906-1.711-1.862c0.755-0.604,1.963-1.309,2.868-1.661
		c0.503-0.201,0.957-0.302,1.359-0.302c2.516,0,3.22,1.811,3.22,2.969c0,1.409,0,3.12-0.05,4.378
		c0.101,0.202,0.755,0.704,1.408,1.006l-0.049,0.301c-0.252,0.202-0.906,0.554-1.813,0.554c-1.358,0-1.912-0.604-2.112-1.057h-0.051
		c-1.057,0.754-1.61,1.057-2.315,1.057c-1.71,0-2.566-1.359-2.566-2.466c0-0.805,0.251-1.309,0.805-1.61
		c0.553-0.353,2.818-1.107,4.025-1.459L60.476,58.3z M58.312,61.571c0,1.057,0.805,1.409,1.308,1.409
		c0.251,0,0.454-0.101,0.654-0.252c0.101-0.1,0.151-0.251,0.151-0.402l0.05-2.616c-0.454,0.201-1.107,0.453-1.561,0.754
		C58.513,60.715,58.312,61.017,58.312,61.571L58.312,61.571z"/>
	<path fill="#FFFFFF" d="M65.407,56.036c0.301-0.151,2.515-0.755,3.371-0.805c0.101,0.352,0.201,1.308,0.201,1.661h0.051
		c0.604-0.957,1.56-1.661,2.516-1.661c0.553,0,0.905,0.151,1.106,0.402c-0.05,0.554-0.604,2.063-1.006,2.717l-0.352,0.101
		c-0.202-0.352-0.402-0.654-0.855-1.459c-0.101-0.05-0.151-0.1-0.302-0.1c-0.403,0-0.956,0.402-1.157,0.956v5.132l1.963,0.654
		l-0.151,0.553c-1.107,0-2.164,0-3.221,0c-0.855,0-1.661,0-2.517,0l0.051-0.553l1.057-0.654c0.1-2.013,0.1-5.183,0.1-5.988
		l-1.056-0.553L65.407,56.036z"/>
	<path fill="#FFFFFF" d="M76.226,59.859c0,0.102,0,0.151,0,0.252c0,1.862,1.157,3.12,2.717,3.12c0.201,0,0.301-0.05,0.503-0.05
		c0.604-0.504,1.51-1.108,1.963-1.309l0.1,0.353c-0.151,0.704-1.157,1.71-1.51,1.912c-0.352,0.151-1.257,0.402-2.063,0.402
		c-2.768,0-4.579-1.71-4.579-4.528c0-2.717,2.113-4.73,4.529-4.73c2.113,0,3.773,1.309,3.773,3.573c0,0.302-0.1,0.554-0.202,0.654
		c-0.15,0.101-0.905,0.352-2.063,0.352H76.226z M78.943,58.954c0.05-0.151,0.101-0.353,0.101-0.654c0-1.359-0.454-2.264-1.258-2.264
		c-1.007,0-1.61,1.761-1.61,2.868h2.768V58.954z"/>
</g>
</svg>
